<svg xmlns="http://www.w3.org/2000/svg" viewBox="0 0 64 64" role="img" aria-label="Domkvět">
  <defs>
    <linearGradient id="petal" x1="0" y1="0" x2="1" y2="1">
      <stop offset="0%" stop-color="#f05d5e" />
      <stop offset="100%" stop-color="#f7b267" />
    </linearGradient>
  </defs>
  <rect width="64" height="64" rx="18" fill="#fff3ea" />
  <g transform="translate(32 32)">
    <circle r="8" fill="#ffd166" />
    <g fill="url(#petal)">
      <path d="M0-24c6 0 10 6 10 12s-4 12-10 12-10-6-10-12 4-12 10-12z" />
      <path d="M24 0c0 6-6 10-12 10s-12-4-12-10 6-10 12-10 12 4 12 10z" />
      <path d="M0 24c-6 0-10-6-10-12s4-12 10-12 10 6 10 12-4 12-10 12z" />
      <path d="M-24 0c0-6 6-10 12-10s12 4 12 10-6 10-12 10-12-4-12-10z" />
    </g>
  </g>
</svg>
